<mxfile host="drawio-plugin" modified="2021-05-12T12:53:28.697Z" agent="5.0 (Windows NT 6.2; Win64; x64) AppleWebKit/537.36 (KHTML, like Gecko) Chrome/87.0.4280.141 Safari/537.36" etag="le6vOVP7isqXw621jkpK" version="14.6.6" type="embed"><diagram id="rMDzpAvi1Z5TIvFdFDTP" name="Page-1"><mxGraphModel dx="875" dy="572" grid="1" gridSize="10" guides="1" tooltips="1" connect="1" arrows="1" fold="1" page="1" pageScale="1" pageWidth="850" pageHeight="1100" background="#ffffff" math="0" shadow="0"><root><mxCell id="0"/><mxCell id="1" parent="0"/><mxCell id="2" value="Calculator" style="swimlane;fontStyle=1;align=center;verticalAlign=top;childLayout=stackLayout;horizontal=1;startSize=26;horizontalStack=0;resizeParent=1;resizeParentMax=0;resizeLast=0;collapsible=1;marginBottom=0;fontColor=#000000;strokeColor=#0000CC;strokeWidth=2;fillColor=#FFFFFF;" parent="1" vertex="1"><mxGeometry x="190" y="140" width="190" height="242" as="geometry"/></mxCell><mxCell id="7" value="# _state: float" style="text;align=left;verticalAlign=top;spacingLeft=4;spacingRight=4;overflow=hidden;rotatable=0;points=[[0,0.5],[1,0.5]];portConstraint=eastwest;fontColor=#000000;strokeColor=#0000CC;strokeWidth=2;fillColor=#FFFFFF;" vertex="1" parent="2"><mxGeometry y="26" width="190" height="26" as="geometry"/></mxCell><mxCell id="3" value="" style="line;strokeWidth=2;align=left;verticalAlign=middle;spacingTop=-1;spacingLeft=3;spacingRight=3;rotatable=0;labelPosition=right;points=[];portConstraint=eastwest;fontColor=#000000;strokeColor=#0000CC;fillColor=#FFFFFF;" parent="2" vertex="1"><mxGeometry y="52" width="190" height="8" as="geometry"/></mxCell><mxCell id="4" value="+ __add__(float)" style="text;align=left;verticalAlign=top;spacingLeft=4;spacingRight=4;overflow=hidden;rotatable=0;points=[[0,0.5],[1,0.5]];portConstraint=eastwest;fontColor=#000000;strokeColor=#0000CC;strokeWidth=2;fillColor=#FFFFFF;" parent="2" vertex="1"><mxGeometry y="60" width="190" height="26" as="geometry"/></mxCell><mxCell id="5" value="+ __sub__(float)" style="text;align=left;verticalAlign=top;spacingLeft=4;spacingRight=4;overflow=hidden;rotatable=0;points=[[0,0.5],[1,0.5]];portConstraint=eastwest;fontColor=#000000;strokeColor=#0000CC;strokeWidth=2;fillColor=#FFFFFF;" parent="2" vertex="1"><mxGeometry y="86" width="190" height="26" as="geometry"/></mxCell><mxCell id="8" value="+ __mul__(float)" style="text;align=left;verticalAlign=top;spacingLeft=4;spacingRight=4;overflow=hidden;rotatable=0;points=[[0,0.5],[1,0.5]];portConstraint=eastwest;fontColor=#000000;strokeColor=#0000CC;strokeWidth=2;fillColor=#FFFFFF;" vertex="1" parent="2"><mxGeometry y="112" width="190" height="26" as="geometry"/></mxCell><mxCell id="10" value="+ __truediv__(float)" style="text;align=left;verticalAlign=top;spacingLeft=4;spacingRight=4;overflow=hidden;rotatable=0;points=[[0,0.5],[1,0.5]];portConstraint=eastwest;fontColor=#000000;strokeColor=#0000CC;strokeWidth=2;fillColor=#FFFFFF;" vertex="1" parent="2"><mxGeometry y="138" width="190" height="26" as="geometry"/></mxCell><mxCell id="9" value="+ __floordiv__(float)" style="text;align=left;verticalAlign=top;spacingLeft=4;spacingRight=4;overflow=hidden;rotatable=0;points=[[0,0.5],[1,0.5]];portConstraint=eastwest;fontColor=#000000;strokeColor=#0000CC;strokeWidth=2;fillColor=#FFFFFF;" vertex="1" parent="2"><mxGeometry y="164" width="190" height="26" as="geometry"/></mxCell><mxCell id="12" value="+ save(): Memento" style="text;align=left;verticalAlign=top;spacingLeft=4;spacingRight=4;overflow=hidden;rotatable=0;points=[[0,0.5],[1,0.5]];portConstraint=eastwest;fontColor=#000000;strokeColor=#0000CC;strokeWidth=2;fillColor=#FFFFFF;" vertex="1" parent="2"><mxGeometry y="190" width="190" height="26" as="geometry"/></mxCell><mxCell id="11" value="+ restore(Memento)" style="text;align=left;verticalAlign=top;spacingLeft=4;spacingRight=4;overflow=hidden;rotatable=0;points=[[0,0.5],[1,0.5]];portConstraint=eastwest;fontColor=#000000;strokeColor=#0000CC;strokeWidth=2;fillColor=#FFFFFF;" vertex="1" parent="2"><mxGeometry y="216" width="190" height="26" as="geometry"/></mxCell><mxCell id="13" value="Memento" style="swimlane;fontStyle=1;align=center;verticalAlign=top;childLayout=stackLayout;horizontal=1;startSize=26;horizontalStack=0;resizeParent=1;resizeParentMax=0;resizeLast=0;collapsible=1;marginBottom=0;fontColor=#000000;strokeColor=#0000CC;strokeWidth=2;fillColor=#FFFFFF;" vertex="1" parent="1"><mxGeometry x="510" y="140" width="190" height="138" as="geometry"/></mxCell><mxCell id="14" value="# _state: float" style="text;align=left;verticalAlign=top;spacingLeft=4;spacingRight=4;overflow=hidden;rotatable=0;points=[[0,0.5],[1,0.5]];portConstraint=eastwest;fontColor=#000000;strokeColor=#0000CC;strokeWidth=2;fillColor=#FFFFFF;" vertex="1" parent="13"><mxGeometry y="26" width="190" height="26" as="geometry"/></mxCell><mxCell id="23" value="# _date: str" style="text;align=left;verticalAlign=top;spacingLeft=4;spacingRight=4;overflow=hidden;rotatable=0;points=[[0,0.5],[1,0.5]];portConstraint=eastwest;fontColor=#000000;strokeColor=#0000CC;strokeWidth=2;fillColor=#FFFFFF;" vertex="1" parent="13"><mxGeometry y="52" width="190" height="26" as="geometry"/></mxCell><mxCell id="15" value="" style="line;strokeWidth=2;align=left;verticalAlign=middle;spacingTop=-1;spacingLeft=3;spacingRight=3;rotatable=0;labelPosition=right;points=[];portConstraint=eastwest;fontColor=#000000;strokeColor=#0000CC;fillColor=#FFFFFF;" vertex="1" parent="13"><mxGeometry y="78" width="190" height="8" as="geometry"/></mxCell><mxCell id="24" value="+ get_date(): str" style="text;align=left;verticalAlign=top;spacingLeft=4;spacingRight=4;overflow=hidden;rotatable=0;points=[[0,0.5],[1,0.5]];portConstraint=eastwest;fontColor=#000000;strokeColor=#0000CC;strokeWidth=2;fillColor=#FFFFFF;" vertex="1" parent="13"><mxGeometry y="86" width="190" height="26" as="geometry"/></mxCell><mxCell id="16" value="+ get_state(): float" style="text;align=left;verticalAlign=top;spacingLeft=4;spacingRight=4;overflow=hidden;rotatable=0;points=[[0,0.5],[1,0.5]];portConstraint=eastwest;fontColor=#000000;strokeColor=#0000CC;strokeWidth=2;fillColor=#FFFFFF;" vertex="1" parent="13"><mxGeometry y="112" width="190" height="26" as="geometry"/></mxCell><mxCell id="26" value="return" style="html=1;verticalAlign=bottom;endArrow=open;dashed=1;endSize=8;strokeColor=#0000FF;strokeWidth=2;exitX=1;exitY=0.5;exitDx=0;exitDy=0;entryX=1;entryY=0.25;entryDx=0;entryDy=0;fontSize=17;fontColor=#000000;labelBackgroundColor=none;" edge="1" parent="13" source="16" target="13"><mxGeometry y="-30" relative="1" as="geometry"><mxPoint x="10" y="220" as="sourcePoint"/><mxPoint x="280" y="110" as="targetPoint"/><Array as="points"><mxPoint x="270" y="125"/><mxPoint x="270" y="35"/></Array><mxPoint as="offset"/></mxGeometry></mxCell><mxCell id="25" value="return" style="html=1;verticalAlign=bottom;endArrow=open;dashed=1;endSize=8;strokeWidth=2;strokeColor=#0000FF;startArrow=none;fontSize=17;fontColor=#000000;labelBackgroundColor=none;exitX=1;exitY=0.5;exitDx=0;exitDy=0;entryX=1;entryY=0.5;entryDx=0;entryDy=0;" edge="1" parent="13" source="24" target="13"><mxGeometry x="-0.5385" y="9" relative="1" as="geometry"><mxPoint x="180" y="230" as="sourcePoint"/><mxPoint x="-70" y="130" as="targetPoint"/><Array as="points"><mxPoint x="240" y="99"/><mxPoint x="240" y="69"/></Array><mxPoint as="offset"/></mxGeometry></mxCell><mxCell id="28" value="StateHistory" style="swimlane;fontStyle=1;align=center;verticalAlign=top;childLayout=stackLayout;horizontal=1;startSize=26;horizontalStack=0;resizeParent=1;resizeParentMax=0;resizeLast=0;collapsible=1;marginBottom=0;fontColor=#000000;strokeColor=#0000CC;strokeWidth=2;fillColor=#FFFFFF;" vertex="1" parent="1"><mxGeometry x="540" y="360" width="190" height="164" as="geometry"/></mxCell><mxCell id="29" value="# _mementos: list[Memento]" style="text;align=left;verticalAlign=top;spacingLeft=4;spacingRight=4;overflow=hidden;rotatable=0;points=[[0,0.5],[1,0.5]];portConstraint=eastwest;fontColor=#000000;strokeColor=#0000CC;strokeWidth=2;fillColor=#FFFFFF;" vertex="1" parent="28"><mxGeometry y="26" width="190" height="26" as="geometry"/></mxCell><mxCell id="30" value="# _state: Calculator" style="text;align=left;verticalAlign=top;spacingLeft=4;spacingRight=4;overflow=hidden;rotatable=0;points=[[0,0.5],[1,0.5]];portConstraint=eastwest;fontColor=#000000;strokeColor=#0000CC;strokeWidth=2;fillColor=#FFFFFF;" vertex="1" parent="28"><mxGeometry y="52" width="190" height="26" as="geometry"/></mxCell><mxCell id="31" value="" style="line;strokeWidth=2;align=left;verticalAlign=middle;spacingTop=-1;spacingLeft=3;spacingRight=3;rotatable=0;labelPosition=right;points=[];portConstraint=eastwest;fontColor=#000000;strokeColor=#0000CC;fillColor=#FFFFFF;" vertex="1" parent="28"><mxGeometry y="78" width="190" height="8" as="geometry"/></mxCell><mxCell id="32" value="+ backup()" style="text;align=left;verticalAlign=top;spacingLeft=4;spacingRight=4;overflow=hidden;rotatable=0;points=[[0,0.5],[1,0.5]];portConstraint=eastwest;fontColor=#000000;strokeColor=#0000CC;strokeWidth=2;fillColor=#FFFFFF;" vertex="1" parent="28"><mxGeometry y="86" width="190" height="26" as="geometry"/></mxCell><mxCell id="33" value="+ undo()" style="text;align=left;verticalAlign=top;spacingLeft=4;spacingRight=4;overflow=hidden;rotatable=0;points=[[0,0.5],[1,0.5]];portConstraint=eastwest;fontColor=#000000;strokeColor=#0000CC;strokeWidth=2;fillColor=#FFFFFF;" vertex="1" parent="28"><mxGeometry y="112" width="190" height="26" as="geometry"/></mxCell><mxCell id="36" value="+ show_history()" style="text;align=left;verticalAlign=top;spacingLeft=4;spacingRight=4;overflow=hidden;rotatable=0;points=[[0,0.5],[1,0.5]];portConstraint=eastwest;fontColor=#000000;strokeColor=#0000CC;strokeWidth=2;fillColor=#FFFFFF;" vertex="1" parent="28"><mxGeometry y="138" width="190" height="26" as="geometry"/></mxCell><mxCell id="37" value="return" style="html=1;verticalAlign=bottom;endArrow=open;dashed=1;endSize=8;labelBackgroundColor=none;fontSize=17;fontColor=#000000;strokeColor=#0000FF;strokeWidth=2;exitX=1;exitY=0.5;exitDx=0;exitDy=0;entryX=0.5;entryY=0;entryDx=0;entryDy=0;" edge="1" parent="1" source="12" target="13"><mxGeometry x="0.4357" relative="1" as="geometry"><mxPoint x="520" y="360" as="sourcePoint"/><mxPoint x="440" y="360" as="targetPoint"/><Array as="points"><mxPoint x="480" y="343"/><mxPoint x="480" y="110"/><mxPoint x="605" y="110"/></Array><mxPoint as="offset"/></mxGeometry></mxCell><mxCell id="38" value="1" style="endArrow=open;html=1;endSize=12;startArrow=diamondThin;startSize=14;startFill=0;edgeStyle=orthogonalEdgeStyle;align=left;verticalAlign=bottom;labelBackgroundColor=none;fontSize=17;fontColor=#000000;strokeColor=#0000FF;strokeWidth=2;exitX=1;exitY=0.5;exitDx=0;exitDy=0;entryX=0.75;entryY=0;entryDx=0;entryDy=0;" edge="1" parent="1" source="29" target="13"><mxGeometry x="-1" y="3" relative="1" as="geometry"><mxPoint x="400" y="360" as="sourcePoint"/><mxPoint x="560" y="360" as="targetPoint"/><Array as="points"><mxPoint x="870" y="399"/><mxPoint x="870" y="110"/><mxPoint x="653" y="110"/></Array></mxGeometry></mxCell><mxCell id="39" value="0..*" style="text;html=1;align=center;verticalAlign=middle;resizable=0;points=[];autosize=1;strokeColor=none;fontSize=17;fontColor=#000000;" vertex="1" parent="1"><mxGeometry x="650" y="80" width="40" height="30" as="geometry"/></mxCell><mxCell id="41" value="1" style="text;html=1;align=center;verticalAlign=middle;resizable=0;points=[];autosize=1;strokeColor=none;fontSize=17;fontColor=#000000;" vertex="1" parent="1"><mxGeometry x="510" y="390" width="20" height="30" as="geometry"/></mxCell><mxCell id="42" value="1" style="text;html=1;align=center;verticalAlign=middle;resizable=0;points=[];autosize=1;strokeColor=none;fontSize=17;fontColor=#000000;" vertex="1" parent="1"><mxGeometry x="380" y="130" width="20" height="30" as="geometry"/></mxCell><mxCell id="40" value="" style="endArrow=open;endFill=1;endSize=12;html=1;labelBackgroundColor=none;fontSize=17;fontColor=#000000;strokeColor=#0000FF;strokeWidth=2;entryX=0.969;entryY=0.045;entryDx=0;entryDy=0;exitX=0;exitY=0.5;exitDx=0;exitDy=0;entryPerimeter=0;" edge="1" parent="1" source="30" target="7"><mxGeometry width="160" relative="1" as="geometry"><mxPoint x="400" y="360" as="sourcePoint"/><mxPoint x="560" y="360" as="targetPoint"/><Array as="points"><mxPoint x="440" y="425"/><mxPoint x="440" y="167"/></Array></mxGeometry></mxCell></root></mxGraphModel></diagram></mxfile>